<?xml version="1.0" encoding="UTF-8"?>
<svg width="26px" height="18px" viewBox="0 0 26 18" version="1.1" xmlns="http://www.w3.org/2000/svg" xmlns:xlink="http://www.w3.org/1999/xlink">
    <!-- Generator: Sketch 47.1 (45422) - http://www.bohemiancoding.com/sketch -->
    <title>Google+@1x</title>
    <desc>Created with Sketch.</desc>
    <defs></defs>
    <g id="D&amp;R-Homepage" stroke="none" stroke-width="1" fill="none" fill-rule="evenodd">
        <g id="Guide----General" transform="translate(-824.000000, -1431.000000)" fill="#A03C4A">
            <path d="M832.785195,1438.23923 L840.411023,1438.23923 C840.941962,1442.17349 839.339851,1448.07457 832.785195,1448.07457 C828.400144,1448.07457 824.844646,1444.39863 824.844646,1439.8646 C824.844646,1435.33058 828.400144,1431.65527 832.785195,1431.65527 C834.842663,1431.65527 836.717369,1432.46412 838.128045,1433.79153 C836.466458,1435.41434 836.520977,1435.51089 835.86799,1436.1861 C835.052065,1435.48851 834.162416,1434.98786 832.785195,1434.98786 C830.180061,1434.98786 828.146755,1437.17143 828.146755,1439.8646 C828.146755,1442.55842 830.180061,1444.74199 832.785195,1444.74199 C835.359354,1444.74199 836.405125,1443.59425 837.077937,1441.48613 C835.835774,1441.48613 832.785195,1441.49061 832.785195,1441.49061 L832.785195,1438.23923 Z M847.093301,1438.40164 L849.844646,1438.40164 L849.844646,1440.43367 L847.093301,1440.43367 L847.093301,1443.36023 L845.128144,1443.36023 L845.128144,1440.43367 L842.297499,1440.43367 L842.297499,1438.40164 L845.128144,1438.40164 L845.128144,1435.55693 L847.093301,1435.55693 L847.093301,1438.40164 Z" id="Google+"></path>
        </g>
    </g>
</svg>