<svg width="50" height="50" viewBox="0 0 50 50" fill="none" xmlns="http://www.w3.org/2000/svg">
<path d="M29.1667 25C29.1667 26.5417 28.3334 27.875 27.0834 28.5834V45.8334H22.9167V28.5834C21.6667 27.8542 20.8334 26.5417 20.8334 25C20.8334 22.7084 22.7084 20.8334 25 20.8334C27.2917 20.8334 29.1667 22.7084 29.1667 25ZM25 12.5C18.1042 12.5 12.5 18.1042 12.5 25C12.5 28.625 14.0625 31.8959 16.5417 34.1667L19.5 31.2084C18.6119 30.4358 17.8995 29.482 17.4108 28.4111C16.9221 27.3403 16.6683 26.1771 16.6667 25C16.6667 20.3959 20.3959 16.6667 25 16.6667C29.6042 16.6667 33.3334 20.3959 33.3334 25C33.3334 27.4792 32.2292 29.6875 30.5 31.2084L33.4584 34.1667C34.7321 33.0035 35.7493 31.5876 36.4452 30.0093C37.1411 28.431 37.5004 26.7249 37.5 25C37.5 18.1042 31.8959 12.5 25 12.5ZM25 4.16669C13.5 4.16669 4.16669 13.5 4.16669 25C4.16669 30.9375 6.66669 36.2709 10.6459 40.0834L13.6042 37.125C11.9438 35.5714 10.6194 33.6939 9.71284 31.6085C8.80629 29.5231 8.3368 27.274 8.33335 25C8.33335 15.8125 15.8125 8.33335 25 8.33335C34.1875 8.33335 41.6667 15.8125 41.6667 25C41.6667 29.7709 39.625 34.0834 36.3959 37.125L39.3542 40.0834C43.3334 36.2709 45.8334 30.9375 45.8334 25C45.8334 13.5 36.5 4.16669 25 4.16669Z" fill="#651B31"/>
</svg>
