<?xml version="1.0" encoding="UTF-8"?>
<svg width="19px" height="20px" viewBox="0 0 19 20" version="1.1" xmlns="http://www.w3.org/2000/svg" xmlns:xlink="http://www.w3.org/1999/xlink">
    <!-- Generator: Sketch 47.1 (45422) - http://www.bohemiancoding.com/sketch -->
    <title>progress white@1x</title>
    <desc>Created with Sketch.</desc>
    <defs>
        <path d="M14.052174,4.15217391 C14.052174,6.35507246 10.7478262,6.35507246 10.7478262,4.15217391 C10.7478262,1.94927536 14.052174,1.94927536 14.052174,4.15217391 Z M13.2260871,20.673913 C13.2260871,21.7753623 11.5739131,21.7753623 11.5739131,20.673913 C11.5739131,19.5724638 13.2260871,19.5724638 13.2260871,20.673913 Z M9.5777199,4.49619324 C10.5873817,6.24602899 7.96409671,7.76052174 6.95443488,6.01105314 C5.94477304,4.26268599 8.56805807,2.74819324 9.5777199,4.49619324 Z M17.1285218,19.2269758 C17.587459,20.0229565 16.3956909,20.7113623 15.9367537,19.9153816 C15.4778165,19.1208696 16.6695846,18.4324638 17.1285218,19.2269758 Z M5.9319228,7.09524638 C7.52094696,8.01312077 6.14413536,10.3981256 4.55511121,9.48025121 C2.96461845,8.56237681 4.34143005,6.17737198 5.9319228,7.09524638 Z M19.8318455,16.0628792 C20.4673817,16.430029 19.9166571,17.3838841 19.2811209,17.0167343 C18.6444832,16.6495845 19.1952078,15.6957295 19.8318455,16.0628792 Z M5.37826096,12.4130435 C5.37826096,14.0652174 2.9000001,14.0652174 2.9000001,12.4130435 C2.9000001,10.7608696 5.37826096,10.7608696 5.37826096,12.4130435 Z M21.0739131,12.4130435 C21.0739131,12.9637681 20.2478262,12.9637681 20.2478262,12.4130435 C20.2478262,11.8623188 21.0739131,11.8623188 21.0739131,12.4130435 Z M6.19443488,15.9956908 C6.92873439,17.2663961 5.02102425,18.3678454 4.28672473,17.0971401 C3.55242522,15.8249662 5.46013536,14.7235169 6.19443488,15.9956908 Z M19.796232,8.14199034 C19.9798069,8.46030918 19.5036136,8.7356715 19.3200387,8.41735266 C19.1364639,8.09903382 19.6126571,7.8236715 19.796232,8.14199034 Z M8.75567159,18.7349952 C9.86850251,19.3775072 8.90473439,21.0469372 7.79190348,20.4044251 C6.67907256,19.761913 7.64284068,18.0924831 8.75567159,18.7349952 Z" id="path-1"></path>
    </defs>
    <g id="D&amp;R-Homepage" stroke="none" stroke-width="1" fill="none" fill-rule="evenodd">
        <g id="Guide----General" transform="translate(-795.000000, -1321.000000)">
            <g id="Group-4" transform="translate(703.000000, 1053.500000)">
                <g id="Group" transform="translate(0.448936, 132.803320)">
                    <g id="uxpower/Icon/Progress" transform="translate(88.920921, 132.623459)">
                        <g id="Group">
                            <rect id="Bounding-Box" x="0" y="0" width="24" height="24"></rect>
                            <mask id="mask-2" fill="white">
                                <use xlink:href="#path-1"></use>
                            </mask>
                            <g id="Mask"></g>
                            <g id="uxpower/Mixin/Fill/White" mask="url(#mask-2)" fill="#FFFFFF">
                                <rect id="Box" x="0" y="0" width="24" height="24"></rect>
                            </g>
                        </g>
                    </g>
                </g>
            </g>
        </g>
    </g>
</svg>