<?xml version="1.0" encoding="UTF-8"?>
<svg width="22px" height="19px" viewBox="0 0 22 19" version="1.1" xmlns="http://www.w3.org/2000/svg" xmlns:xlink="http://www.w3.org/1999/xlink">
    <!-- Generator: Sketch 47.1 (45422) - http://www.bohemiancoding.com/sketch -->
    <title>Twitter@1x</title>
    <desc>Created with Sketch.</desc>
    <defs></defs>
    <g id="D&amp;R-Homepage" stroke="none" stroke-width="1" fill="none" fill-rule="evenodd">
        <g id="Guide----General" transform="translate(-777.000000, -1430.000000)" fill="#A03C4A">
            <path d="M798.19885,1430.98804 C797.368363,1431.50824 796.450691,1431.88657 795.469866,1432.089 C794.68856,1431.20662 793.571929,1430.65527 792.335699,1430.65527 C789.966072,1430.65527 788.042985,1432.68994 788.042985,1435.19925 C788.042985,1435.55566 788.079871,1435.90112 788.153642,1436.23388 C784.584671,1436.04414 781.420883,1434.23728 779.301631,1431.4846 C778.931656,1432.15821 778.720402,1432.93966 778.720402,1433.77187 C778.720402,1435.34747 779.478236,1436.73851 780.631193,1437.55342 C779.928129,1437.5315 779.264746,1437.32504 778.684634,1436.98708 L778.684634,1437.04245 C778.684634,1439.24494 780.165092,1441.08237 782.131212,1441.49818 C781.771297,1441.60488 781.391262,1441.65851 780.999492,1441.65851 C780.722849,1441.65851 780.452912,1441.63083 780.191359,1441.57777 C780.737938,1443.38233 782.322906,1444.69667 784.202401,1444.73185 C782.73312,1445.95104 780.880451,1446.6777 778.869063,1446.6777 C778.52256,1446.6777 778.17997,1446.65694 777.844646,1446.61542 C779.744819,1447.90266 782.00323,1448.65527 784.427627,1448.65527 C792.327316,1448.65527 796.645738,1441.73233 796.645738,1435.72695 C796.645738,1435.52913 796.642385,1435.33189 796.635119,1435.13812 C797.47399,1434.49738 798.202762,1433.69747 798.776167,1432.78625 C798.007156,1433.14728 797.178904,1433.39181 796.310413,1433.50139 C797.197347,1432.93966 797.878056,1432.04921 798.19885,1430.98804" id="Twitter"></path>
        </g>
    </g>
</svg>