<svg xmlns:svg="http://www.w3.org/2000/svg" xmlns="http://www.w3.org/2000/svg" version="1.1" x="0px" y="0px" width="520" height="200">
  <g transform="translate(-10,-50)" id="g4167">
    <path style="fill:#E4E5E6;" d="M 149.9375 79.222656 C 149.9375 79.222656 86.718651 79.222715 70.851562 83.345703 C 62.355775 85.719505 55.360154 92.715203 52.986328 101.33594 C 48.863375 117.20304 48.863281 150.0625 48.863281 150.0625 C 48.863281 150.0625 48.863375 183.0467 52.986328 198.66406 C 55.360154 207.28468 62.230834 214.15544 70.851562 216.5293 C 86.843592 220.77718 149.9375 220.77734 149.9375 220.77734 C 149.9375 220.77734 213.28168 220.77729 229.14844 216.6543 C 237.76923 214.28049 244.63977 207.53464 246.88867 198.78906 C 251.1366 183.04674 251.13672 150.1875 251.13672 150.1875 C 251.13672 150.1875 251.26156 117.20304 246.88867 101.33594 C 244.63977 92.715203 237.76923 85.844606 229.14844 83.595703 C 213.28168 79.222856 149.9375 79.222656 149.9375 79.222656 z M 129.82227 119.70312 L 182.42188 150.0625 L 129.82227 180.29688 L 129.82227 119.70312 z "/>
  </g>
  <path  transform="translate(-100,-355)" style="fill:#E4E5E6;fill-opacity:1;stroke:none" d="m 407.51456,418.71714 c 20.36065,-18.26869 38.5373,-50.1058 59.63915,-43.49374 34.97004,9.05104 19.86115,75.94774 39.73277,107.22334 27.21613,-15.34824 44.87532,-47.63468 37.53937,-64.3886 -1.64052,-4.68205 0.3562,-16.35841 -21.98768,-6.15753 -5.79957,2.64773 -5.5624,-7.61098 -4.54176,-8.99938 20.68678,-22.73212 32.63315,-32.21383 46.78872,-31.63182 11.90426,1.9887 32.8395,15.3654 28.99583,47.44772 -7.96729,47.73745 -78.05806,122.69948 -101.4854,119.93729 -26.82107,5.91679 -40.45673,-78.81619 -60.62764,-118.61929 l -18.45832,7.14216 c -7.60606,1.19868 -6.55648,-3.66159 -5.59504,-8.46015 z" />
</svg>
